<svg xmlns="http://www.w3.org/2000/svg" viewBox="0 0 248 60">
  <defs>
    <linearGradient id="wh-grad" x1="0" y1="0" x2="1" y2="0">
      <stop offset="0%" stop-color="#0F172A"/>
      <stop offset="100%" stop-color="#1E293B"/>
    </linearGradient>
  </defs>
  <circle cx="30" cy="30" r="24" fill="none" stroke="#C1121F" stroke-width="2.2"/>
  <line x1="30" y1="6"  x2="30" y2="14" stroke="#C1121F" stroke-width="1.8" stroke-linecap="round"/>
  <line x1="30" y1="54" x2="30" y2="46" stroke="#C1121F" stroke-width="1.8" stroke-linecap="round"/>
  <line x1="6"  y1="30" x2="14" y2="30" stroke="#C1121F" stroke-width="1.8" stroke-linecap="round"/>
  <line x1="54" y1="30" x2="46" y2="30" stroke="#C1121F" stroke-width="1.8" stroke-linecap="round"/>
  <rect x="12" y="31" width="36" height="9" rx="2.5" fill="#0F172A"/>
  <polygon points="18,31 23,22 37,22 42,31" fill="#0F172A"/>
  <circle cx="18" cy="41" r="5.5" fill="#0F172A"/>
  <circle cx="18" cy="41" r="2.2" fill="#C1121F"/>
  <circle cx="38" cy="41" r="5.5" fill="#0F172A"/>
  <circle cx="38" cy="41" r="2.2" fill="#C1121F"/>
  <circle cx="18" cy="41" r="1"   fill="white" fill-opacity="0.6"/>
  <circle cx="38" cy="41" r="1"   fill="white" fill-opacity="0.6"/>
  <circle cx="30" cy="30" r="2.5" fill="#C1121F"/>
  <text x="68" y="42" font-family="'Bebas Neue', 'Arial Narrow', sans-serif" font-size="34" letter-spacing="3" fill="#0F172A">CAR</text>
  <text x="122" y="42" font-family="'Bebas Neue', 'Arial Narrow', sans-serif" font-size="34" letter-spacing="3" fill="#C1121F">SCOPE</text>
  <text x="69" y="53" font-family="'Plus Jakarta Sans', sans-serif" font-size="8" font-weight="600" letter-spacing="2.5" fill="#94A3B8">FIND YOUR PERFECT DRIVE</text>
</svg>
